<?xml version="1.0" encoding="iso-8859-1"?>
<!-- Uploaded to: SVG Repo, www.svgrepo.com, Generator: SVG Repo Mixer Tools -->
<!DOCTYPE svg PUBLIC "-//W3C//DTD SVG 1.1//EN" "http://www.w3.org/Graphics/SVG/1.1/DTD/svg11.dtd">
<svg fill="#000000" version="1.1" id="Capa_1" xmlns="http://www.w3.org/2000/svg" xmlns:xlink="http://www.w3.org/1999/xlink" 
	 width="800px" height="800px" viewBox="0 0 438.982 438.982"
	 xml:space="preserve">
<g>
	<path d="M438.982,40.746c0,9.283-7.526,16.81-16.812,16.81h-33.801L276.305,315.309H44.828L0,136.002h217.649
		c9.285,0,16.81,7.524,16.81,16.81c0,9.283-7.524,16.81-16.81,16.81H43.067l28.017,112.067h183.173L366.322,23.936h55.848
		C431.461,23.936,438.982,31.459,438.982,40.746z M149.776,368.539c0,25.643-20.867,46.508-46.509,46.508
		c-25.639,0-46.505-20.865-46.505-46.508c0-25.647,20.866-46.511,46.505-46.511C128.909,322.028,149.776,342.892,149.776,368.539z
		 M127.364,368.539c0-13.285-10.811-24.098-24.097-24.098c-13.282,0-24.093,10.812-24.093,24.098
		c0,13.287,10.811,24.096,24.093,24.096C116.553,392.635,127.364,381.826,127.364,368.539z M273.381,368.539
		c0,25.643-20.87,46.508-46.512,46.508c-25.637,0-46.503-20.865-46.503-46.508c0-25.647,20.866-46.511,46.503-46.511
		C252.511,322.028,273.381,342.892,273.381,368.539z M250.97,368.539c0-13.285-10.813-24.098-24.101-24.098
		c-13.283,0-24.091,10.812-24.091,24.098c0,13.287,10.808,24.096,24.091,24.096C240.156,392.635,250.97,381.826,250.97,368.539z"/>
</g>
</svg>